<?xml version="1.0" standalone="no"?>
<!DOCTYPE svg PUBLIC "-//W3C//DTD SVG 1.1//EN" "http://www.w3.org/Graphics/SVG/1.1/DTD/svg11.dtd" >
<svg xmlns="http://www.w3.org/2000/svg" xmlns:xlink="http://www.w3.org/1999/xlink" version="1.1">
<metadata></metadata>
<defs>
<font id="sf_outer_limitsregular" horiz-adv-x="1365" >
<font-face units-per-em="2048" ascent="1638" descent="-410" />
<missing-glyph horiz-adv-x="683" />
<glyph horiz-adv-x="0" />
<glyph horiz-adv-x="682" />
<glyph unicode=" "  horiz-adv-x="683" />
<glyph unicode="&#x09;" horiz-adv-x="683" />
<glyph unicode="&#xa0;" horiz-adv-x="683" />
<glyph unicode="!" horiz-adv-x="427" d="M-27 31l30 191q6 34 41 34h188q27 0 27 -31l-32 -191q-4 -34 -41 -34h-186q-27 0 -27 31zM31 372v3l169 956q7 34 41 34h187q28 0 28 -30v-4l-169 -956q-7 -34 -40 -34h-187q-29 0 -29 31z" />
<glyph unicode="&#x22;" horiz-adv-x="717" d="M84 1133q0 5 8 54t24 144q4 34 41 34h188q27 0 27 -24q0 -10 -24 -146q-17 -93 -87 -169q-71 -77 -160 -86v33q68 17 97 136q-53 -3 -56 -3q-58 0 -58 27zM374 1133q0 5 8 54t24 144q4 34 41 34h188q27 0 27 -24q0 -10 -24 -146q-17 -93 -87 -169q-71 -77 -160 -86v33 q68 17 97 136q-53 -3 -56 -3q-58 0 -58 27z" />
<glyph unicode="#" horiz-adv-x="968" d="M85 669q0 50 19 108q12 37 72 37q10 0 30.5 -1.5t30.5 -1.5l24 128q-10 0 -30.5 -2t-30.5 -2q-62 0 -62 33q0 49 19 107q12 38 72 38q10 0 30.5 -2t30.5 -2q4 38 12 77q12 51 46 51h103q27 0 27 -39q0 1 -4.5 -21t-12.5 -68h128q4 38 12 77q12 51 46 51h102q28 0 28 -39 q0 2 -18 -89q6 0 14.5 0.5t17.5 1.5t17 1.5t13 0.5q61 0 61 -33q0 -47 -18 -107q-12 -38 -72 -38q-5 0 -13 0.5t-17 1.5t-17.5 1.5t-14.5 0.5l-23 -128q10 0 30.5 1.5t30.5 1.5q61 0 61 -32q0 -48 -18 -108q-12 -37 -72 -37q-10 0 -30.5 1.5t-30.5 1.5q-3 -20 -6 -39t-5 -38 q-14 -51 -46 -51h-102q-29 0 -29 39q0 -1 4.5 21.5t12.5 67.5h-128q-2 -20 -5 -39t-5 -38q-14 -51 -46 -51h-103q-29 0 -29 39q0 -1 4.5 21.5t12.5 67.5q-10 0 -30.5 -1.5t-30.5 -1.5q-62 0 -62 32zM408 811h128l24 128h-128z" />
<glyph unicode="$" d="M-5 155q0 2 8 50.5t24 144.5q7 34 40 34h904l31 171h-683q-89 0 -153 62q-62 62 -62 153q0 22 4 41l69 392q7 34 40 34h435q12 75 12 77q13 51 46 51h188q27 0 27 -37q0 -8 -17 -91h435q29 0 29 -27q0 -7 -34 -195q-7 -34 -39 -34h-905l-30 -170h682q91 0 153 -63 q62 -62 62 -152q0 -22 -3 -41l-70 -393q-7 -34 -39 -34h-436q-12 -75 -12 -77q-14 -51 -46 -51h-187q-28 0 -28 38q0 8 17 90h-435q-27 0 -27 27z" />
<glyph unicode="%" horiz-adv-x="2219" d="M113 812q0 12 12 86t35 211q16 102 107 179q92 77 196 77h256q89 0 151 -62t62 -153q0 -24 -48 -297q-20 -103 -109 -179q-89 -77 -193 -77h-256q-90 0 -152 62q-61 62 -61 153zM372 853h256l44 256h-256zM418 148q0 16 10 26l1190 1179q12 12 31 12q23 0 88 -62 q64 -61 64 -86q0 -15 -11 -26l-1189 -1179q-12 -12 -31 -12q-23 0 -88 62q-64 63 -64 86zM1287 215q0 24 48 297q17 102 107 179q92 77 195 77h256q89 0 151 -63q62 -62 62 -152q0 -24 -48 -297q-20 -103 -109 -179q-89 -77 -193 -77h-256q-90 0 -152 62q-61 62 -61 153z M1546 256h256l45 256h-256z" />
<glyph unicode="&#x26;" d="M29 343q0 11 8.5 63.5t25.5 148.5q23 120 126 196v15q-2 43 12 108q5 27 11 54t12 53q18 102 107 179t193 77h128q12 75 12 77q13 51 46 51h188q27 0 27 -37q0 -8 -17 -91h435q29 0 29 -27q0 -7 -34 -195q-7 -34 -39 -34h-819l-31 -170h307q29 0 29 -28q0 -2 -8.5 -50.5 t-25.5 -143.5q-7 -34 -39 -34h-393l-31 -171h905q29 0 29 -27q0 -7 -34 -195q-7 -34 -39 -34h-436q-12 -75 -12 -77q-14 -51 -46 -51h-187q-28 0 -28 38q0 8 17 90h-213q-89 0 -153 62q-62 64 -62 153z" />
<glyph unicode="'" horiz-adv-x="427" d="M84 1133q0 5 8 54t24 144q4 34 41 34h188q27 0 27 -24q0 -10 -24 -146q-17 -93 -87 -169q-71 -77 -160 -86v33q68 17 97 136q-53 -3 -56 -3q-58 0 -58 27z" />
<glyph unicode="(" horiz-adv-x="683" d="M-22 -125q0 21 3 41l210 1193q19 102 108 179q91 77 193 77h221q36 0 29 -34l-34 -188q-7 -34 -39 -34h-222l-211 -1193h221q36 0 29 -34l-34 -187q-8 -35 -39 -35h-222q-91 0 -152 63q-61 61 -61 152z" />
<glyph unicode=")" horiz-adv-x="683" d="M-58 -305l34 187q7 34 38 34h222l211 1193h-222q-36 0 -29 34l34 188q7 34 40 34h222q90 0 152 -62q63 -62 63 -153q0 -22 -4 -41l-211 -1193q-20 -103 -109 -179q-89 -77 -192 -77h-220q-37 0 -29 35z" />
<glyph unicode="*" horiz-adv-x="1157" d="M49 599q0 78 69 125q24 16 363 95q-155 38 -329 96q-36 30 -36 71q0 69 54 125t120 56q19 0 43 -12q25 -12 213 -252q-17 146 -25.5 222.5t-8.5 84.5q0 67 47 111t115 44q45 0 82 -25q41 -32 41 -74q0 -38 -65 -179q-23 -46 -45.5 -92t-44.5 -92q129 118 300 252 q28 12 48 12q51 0 84 -38q34 -37 34 -90q0 -78 -69 -124q-23 -17 -365 -96q78 -19 160 -42.5t171 -52.5q36 -32 36 -72q0 -68 -54 -125q-53 -56 -120 -56q-18 0 -43 11q-23 10 -213 254q17 -146 25.5 -223t8.5 -85q0 -68 -47 -112q-46 -43 -115 -43q-44 0 -84 28 q-39 28 -39 71q0 38 65 179q23 46 45.5 92t44.5 93q-43 -38 -85 -77t-85 -77q-132 -111 -178 -111q-51 0 -85 37q-33 37 -33 91z" />
<glyph unicode="+" horiz-adv-x="853" d="M68 585q0 4 34 192q7 34 40 34h179l32 179q7 34 40 34h187q29 0 29 -31q0 -1 -8 -46t-24 -136h179q29 0 29 -31q0 -1 -8.5 -48.5l-25.5 -142.5q-7 -34 -39 -34h-180l-32 -180q-7 -34 -39 -34h-188q-29 0 -29 31q0 -1 32 183h-179q-29 0 -29 30z" />
<glyph unicode="," horiz-adv-x="427" d="M84 24q0 4 8 53t24 145q4 34 41 34h188q27 0 27 -24q0 -11 -24 -147q-17 -91 -87 -167q-72 -78 -160 -85v32q69 17 97 135q-26 -1 -40 -1.5t-16 -0.5q-58 0 -58 26z" />
<glyph unicode="-" horiz-adv-x="1024" d="M68 585q0 4 34 192q7 34 40 34h785q29 0 29 -31q0 -1 -8.5 -48.5l-25.5 -142.5q-7 -34 -40 -34h-785q-29 0 -29 30z" />
<glyph unicode="." horiz-adv-x="427" d="M68 31q0 3 34 191q7 34 40 34h187q29 0 29 -31q0 -3 -34 -191q-7 -34 -39 -34h-188q-29 0 -29 31z" />
<glyph unicode="/" horiz-adv-x="672" d="M-135 -253q5 45 58 156q20 39 39 78t38 77q67 152 167 377t236 528l119 266q8 20 15.5 39t15.5 39q27 55 55 55q31 0 111 -24q90 -27 90 -53v-7q-3 -44 -58 -155l-39.5 -79t-39.5 -78q-67 -152 -167 -377t-235 -528l-120 -264q-8 -20 -15.5 -39.5t-15.5 -39.5 q-27 -54 -54 -54q-33 0 -109 24q-91 27 -91 53v6z" />
<glyph unicode="0" d="M7 215q0 21 3 41l150 853q19 102 108 179q91 77 195 77h682q90 0 152 -62t62 -153q0 -22 -4 -41l-150 -853q-20 -103 -109 -179q-89 -77 -193 -77h-683q-90 0 -152 62q-61 62 -61 153zM266 256h683l150 853h-683z" />
<glyph unicode="1" horiz-adv-x="512" d="M56 31v3l190 1075h-7q-4 0 -9 -1h-17q-46 0 -46 32l33 191q4 34 41 34h273q27 0 27 -30v-4l-229 -1297q-7 -34 -41 -34h-187q-28 0 -28 31z" />
<glyph unicode="2" d="M-27 34l97 563q19 102 108 179q91 77 194 77h683l44 256h-904q-32 0 -28 34l33 188q4 34 41 34h904q90 0 152 -62t62 -153q0 -23 -48 -297q-17 -103 -108 -179q-91 -77 -194 -77h-683l-60 -341h905q31 0 27 -34l-32 -188q-4 -34 -41 -34h-1125q-34 0 -27 34z" />
<glyph unicode="3" d="M-27 26q0 5 30 196q6 34 41 34h905l60 341h-393q-27 0 -27 26q0 4 8 52.5t24 143.5q4 34 41 34h307l45 256h-819q-28 0 -28 26q0 7 33 196q4 34 41 34h819q89 0 151 -62t62 -153q0 -20 -3 -41l-45 -256q-5 -25 -18 -59q61 -61 61 -154q0 -21 -3 -43l-60 -341 q-17 -103 -108 -179q-91 -77 -194 -77h-903q-27 0 -27 26z" />
<glyph unicode="4" d="M67 556q0 21 3 41l130 734q7 34 41 34h187q28 0 28 -29v-5l-130 -734h512l99 564q7 34 41 34h188q27 0 27 -29v-5l-99 -564h137q29 0 29 -29q0 -2 -9 -49.5t-26 -143.5q-6 -34 -39 -34h-136l-55 -307q-7 -34 -41 -34h-188q-27 0 -27 29q0 4 55 312h-512q-91 0 -153 62 q-62 64 -62 153z" />
<glyph unicode="5" d="M-27 24q0 10 30 198q6 34 41 34h905l60 341h-683q-90 0 -152 62q-61 62 -61 153q0 21 3 41l84 478q4 34 41 34h1126q27 0 27 -24q0 -8 -32 -198q-4 -34 -41 -34h-905l-44 -256h683q89 0 151 -62t62 -153q0 -20 -3 -41l-60 -341q-17 -103 -108 -179q-91 -77 -194 -77h-903 q-27 0 -27 24z" />
<glyph unicode="6" d="M7 215q0 21 3 41l150 853q19 102 108 179q91 77 195 77h563q31 0 27 -34l-32 -188q-6 -34 -41 -34h-564l-44 -256h683q89 0 151 -62t62 -153q0 -20 -3 -41l-60 -341q-17 -103 -108 -179q-91 -77 -194 -77h-683q-90 0 -152 62q-61 62 -61 153zM266 256h683l60 341h-683z " />
<glyph unicode="7" horiz-adv-x="1323" d="M125 1140q0 1 8 48.5l24 142.5q4 34 41 34h1126q28 0 28 -30v-4l-229 -1297q-7 -34 -41 -34h-188q-27 0 -27 31v3l189 1075h-904q-27 0 -27 31z" />
<glyph unicode="8" d="M7 215q0 21 3 41l60 341q19 117 128 197v15q-1 24 3 60.5t14 87.5q8 38 15.5 76t15.5 76q16 102 107 179q92 77 195 77h512q89 0 151 -62t62 -153q0 -20 -3 -41l-12 -80l-12 -80q-17 -104 -39 -155q61 -61 61 -154q0 -22 -3 -43l-60 -341q-17 -103 -108 -179 q-91 -77 -194 -77h-683q-90 0 -152 62q-61 62 -61 153zM266 256h683l60 341h-683zM457 853h512l45 256h-512z" />
<glyph unicode="9" d="M113 812q0 20 47 297q16 102 107 179q92 77 196 77h682q90 0 152 -62t62 -153q0 -22 -4 -41l-150 -853q-20 -103 -109 -179q-89 -77 -193 -77h-563q-32 0 -28 34l33 188q4 34 41 34h563l60 341h-683q-90 0 -152 62q-61 62 -61 153zM372 853h683l44 256h-683z" />
<glyph unicode=":" horiz-adv-x="427" d="M15 31q0 3 34 191q7 34 40 34h187q29 0 29 -31q0 -3 -34 -191q-6 -34 -39 -34h-188q-29 0 -29 31zM121 628q0 1 8.5 48.5l25.5 142.5q7 34 40 34h187q29 0 29 -30q0 -4 -34 -192q-7 -34 -39 -34h-188q-29 0 -29 31z" />
<glyph unicode=";" horiz-adv-x="427" d="M31 24q0 10 34 198q7 34 39 34h188q29 0 29 -26q0 -6 -26 -145q-16 -90 -85 -165q-72 -80 -162 -87l1 32q69 16 96 135q-26 -1 -40 -1.5t-16 -0.5q-58 0 -58 26zM137 628l32 191q4 34 41 34h188q27 0 27 -30l-32 -192q-6 -34 -41 -34h-188q-27 0 -27 31z" />
<glyph unicode="=" horiz-adv-x="1024" d="M39 415l33 191q4 34 41 34h785q27 0 27 -31q0 -1 -8 -48t-24 -143q-6 -34 -41 -34h-785q-28 0 -28 31zM99 756l32 191q6 34 41 34h785q28 0 28 -30l-33 -192q-4 -34 -41 -34h-785q-27 0 -27 31z" />
<glyph unicode="?" d="M-27 31l30 191q6 34 41 34h188q27 0 27 -31l-32 -191q-4 -34 -41 -34h-186q-27 0 -27 31zM31 375l39 222q19 102 108 179q91 77 194 77h683l44 256h-904q-32 0 -28 34l33 188q4 34 41 34h904q90 0 152 -62t62 -153q0 -23 -48 -297q-17 -103 -108 -179q-91 -77 -194 -77 h-683l-39 -222q-7 -34 -40 -34h-187q-36 0 -29 34z" />
<glyph unicode="A" d="M-111 469q0 84 176 96q24 149 131 229v8q0 8 1.5 21t3.5 30l45 256q16 102 108 179t194 77h512q89 0 151 -62t62 -153q0 -46 -24 -179q-24 -134 -42 -177q61 -61 61 -154q0 -20 -44 -276q136 -60 136 -123q0 -96 -280 -96q-543 0 -1053 205q-138 55 -138 119zM-72 486 q0 -30 108 -88l20 123q-128 -14 -128 -35zM-27 26q0 3 12 75t35 215q65 -33 241 -87l-34 -195q-7 -34 -41 -34h-186q-27 0 -27 26zM275 300q321 -104 662 -116l39 231q-321 104 -662 116zM321 567q344 -21 662 -115l26 145h-683zM457 853h512l45 256h-512zM910 31l13 83 q35 -2 50.5 -3.5t12.5 -1.5h128q4 0 20 1.5t45 5.5q-2 -17 -5 -34.5t-5 -35.5q-12 -46 -44 -46h-188q-27 0 -27 31zM1193 193q133 16 133 37q0 31 -111 87z" />
<glyph unicode="B" d="M-67 614q0 70 166 151l101 566q7 34 41 34h819q94 0 153 -63q58 -62 58 -160q0 -14 -1.5 -27.5t-3.5 -27.5q16 2 31 3t29 1q159 0 159 -62q0 -108 -452 -266q-149 -52 -291.5 -93t-282.5 -73q-199 -46 -355 -46q-171 0 -171 63zM-32 623q0 -23 102 -27l20 117 q-122 -68 -122 -90zM-27 34l83 485q13 -1 26 -1.5t27 -0.5q62 0 113.5 4.5t93.5 12.5l-50 -278h683l60 341h-448q108 24 270.5 74t383.5 128l-2 -11q55 -58 55 -148q0 -21 -3 -43l-60 -341q-16 -102 -109 -179q-92 -77 -193 -77h-903q-34 0 -27 34zM377 882q309 115 627 171 l10 56h-598zM394 853h575l29 166q-152 -25 -302 -66.5t-302 -99.5zM1229 879q220 109 220 142q0 25 -133 25h-56z" />
<glyph unicode="C" d="M-48 821q0 82 174 90l34 198q19 102 108 179q91 77 195 77h904q31 0 27 -34l-32 -188q-4 -34 -41 -34h-905l-34 -196q191 -12 365 -42q88 -15 183 -39.5t198 -58.5q294 -99 294 -186q0 -95 -299 -95q-239 0 -495 44q-90 16 -185 41t-197 60q-294 99 -294 184zM-10 833 q0 -34 106 -89l22 125q-128 -17 -128 -36zM7 215q0 21 3 41l72 406q75 -38 241 -87l-57 -319h905q27 0 27 -24q0 -8 -32 -198q-4 -34 -41 -34h-905q-90 0 -152 62q-61 62 -61 153zM335 647q360 -118 737 -118q182 0 278 27q38 11 38 21q0 19 -43 46q-372 231 -970 254z" />
<glyph unicode="D" d="M-90 493q0 73 169 152l121 686q7 34 41 34h904q90 0 152 -62t62 -153q0 -10 -7 -55t-21 -126h15q115 0 115 -61q0 -70 -167 -150q-292 -139 -606 -227q-357 -98 -635 -98q-143 0 -143 60zM-55 503q0 -22 104 -27l21 118q-125 -71 -125 -91zM-27 34l63 365h36 q140 0 223 21l-29 -164h683l61 350q76 26 145 56t132 62l-82 -468q-16 -102 -109 -179q-92 -77 -193 -77h-903q-34 0 -27 34zM307 492q359 46 715 186l43 233q-362 -47 -717 -186zM355 763q355 130 717 186l27 160h-683zM1302 809q126 70 126 94q0 19 -105 24z" />
<glyph unicode="E" d="M-27 34l128 736q100 -46 224.5 -89t276.5 -84h-276l-60 -341h905q31 0 27 -34l-32 -188q-4 -34 -41 -34h-1125q-34 0 -27 34zM-19 932q0 77 164 85l55 314q4 34 41 34h1126q31 0 27 -34l-32 -188q-4 -34 -41 -34h-905l-17 -102q94 -11 185.5 -26.5t181.5 -35.5 q136 -30 225 -63q90 -32 149 -32h28t40 1t40.5 1.5t28.5 0.5q27 0 27 -36q0 -23 -12 -63q128 -68 128 -126q0 -90 -236 -90q-231 0 -479 59q-106 26 -208 57.5t-202 69.5q-314 119 -314 208zM14 942q0 -29 100 -90l23 121q-123 -9 -123 -31zM372 853h584q-140 48 -280 77 t-283 41zM899 597q136 -18 250 -18q239 0 239 39q0 21 -105 89q-12 -110 -52 -110h-332z" />
<glyph unicode="F" horiz-adv-x="1323" d="M-56 444q0 61 128 160l128 727q7 34 41 34h1126q27 0 27 -42q0 -38 -22 -120q50 -5 50 -46q0 -102 -331 -304q-745 -457 -1074 -457q-73 0 -73 48zM-27 26q0 3 14 86.5t42 249.5q149 19 268 66l-70 -394q-7 -34 -41 -34h-186q-27 0 -27 26zM-20 451q0 -14 27 -14 q10 0 36 3l18 103q-81 -74 -81 -92zM311 505q53 18 112 41t125 51h-222zM372 853h79q274 159 530 256h-565zM512 853h521q321 208 355 304l-23 7q-2 -20 -6 -31.5t-12.5 -17.5t-22 -7.5t-34.5 -1.5q-14 0 -34 0.5t-46 1.5q-53 3 -80 3q-149 0 -618 -258zM710 597 q78 41 133.5 70.5t90.5 49.5q123 70 215 136h128q31 0 27 -34l-33 -188q-4 -34 -40 -34h-521z" />
<glyph unicode="G" d="M-43 799q0 78 164 83l39 227q16 102 108 179t195 77h904q31 0 27 -34l-32 -188q-4 -34 -41 -34h-905l-41 -235q180 -20 344 -55.5t314 -89.5q7 124 56 124h188q31 0 27 -34l-34 -198q126 -66 126 -128q0 -87 -218 -87q-287 0 -579 72q-303 75 -544 210q-98 56 -98 111z M-9 809q0 -27 101 -90l21 121q-122 -9 -122 -31zM7 215q0 21 3 41l67 379q59 -38 237 -106l-48 -273h683l22 126q74 -8 137 -10q21 -1 41 -1q40 0 76 3l-59 -340q-7 -34 -41 -34h-905q-90 0 -152 62q-61 62 -61 153zM328 604q159 -63 322 -100.5t333 -51.5l41 234 q-321 125 -655 152zM1239 451q125 11 125 32q0 26 -103 89z" />
<glyph unicode="H" d="M-79 546q0 68 166 150l113 635q7 34 41 34h187q32 0 28 -34l-84 -478h104q10 4 21 7.5t24 8.5q285 95 559 135l58 327q7 34 41 34h188q34 0 27 -34l-54 -310q131 0 131 -62q0 -85 -317 -217q-96 -40 -198.5 -76.5t-213.5 -68.5q-386 -114 -643 -114q-178 0 -178 63z M-44 551q0 -20 102 -24l21 118q-123 -71 -123 -94zM-27 29v5l71 417q8 -1 17 -1.5t18 -0.5h54q98 0 171 19l-77 -434q-7 -34 -41 -34h-186q-27 0 -27 29zM317 543q150 18 299 54h-290zM575 853h480l18 111q-237 -30 -498 -111zM845 597q160 55 228 81q64 25 120 49t104 48 l-131 -741q-7 -34 -41 -34h-188q-34 0 -27 34l99 563h-164zM1311 860q126 70 126 96q0 19 -104 22z" />
<glyph unicode="I" horiz-adv-x="427" d="M-162 817q0 100 316 251l46 263q7 34 41 34h187q32 0 28 -34l-28 -159q108 29 190 29t82 -46q0 -90 -253 -216q-94 -48 -178.5 -82t-162.5 -57q-102 -29 -186 -29q-82 0 -82 46zM-133 826q0 -12 49 -12q46 0 94.5 6.5t102.5 19.5l34 191q-72 -37 -157 -94 q-123 -83 -123 -111zM-27 24q0 5 32 190.5t96 551.5q75 22 143 47.5t130 56.5l-147 -836q-7 -34 -41 -34h-186q-27 0 -27 24zM387 940q36 19 76 42.5t85 51.5q123 82 123 115q0 10 -46 10q-96 0 -203 -26z" />
<glyph unicode="J" horiz-adv-x="981" d="M-261 466q0 58 124 142q325 220 830 373l61 350q7 34 41 34h188q34 0 27 -34l-49 -280q116 26 200 26q107 0 107 -50q0 -56 -152 -158q-51 -35 -102.5 -65t-105.5 -56q-118 -59 -248.5 -112t-275.5 -102q-348 -118 -539 -118q-106 0 -106 50zM-227 473q0 -14 56 -14 q322 0 808 203l49 283q-436 -130 -787 -361q-126 -84 -126 -111zM-70 34l32 188q6 34 40 34h563l58 335q60 22 95 35.5t47 18.5q40 17 74 34t62 34l-80 -457q-16 -102 -109 -179q-92 -77 -193 -77h-562q-31 0 -27 34zM916 795q316 171 316 224q0 15 -49 15q-99 0 -229 -24z " />
<glyph unicode="K" d="M-27 24q0 10 117 688q132 -137 250 -200h-29l-84 -478q-7 -34 -41 -34h-186q-27 0 -27 24zM17 876q0 36 41 56q27 12 60 13q7 0 13 -1l69 387q7 34 41 34h187q32 0 28 -34l-77 -438q46 -14 95 -32.5t103 -41.5l630 536q11 10 27 10q25 0 80 -70q56 -71 56 -97 q0 -12 -13 -24l-478 -406h160q90 0 152 -63q62 -62 62 -152q0 -22 -19 -135q78 -74 78 -126q0 -72 -105 -72q-282 0 -799 292q-119 67 -231 159q-160 129 -160 205zM53 884q0 -19 55 -80l17 97q-8 1 -15 1.5t-13 0.5q-44 0 -44 -19zM357 768h160l29 26q-49 19 -92.5 33.5 t-81.5 25.5zM483 512q236 -136 474 -203l36 203h-510zM910 26q0 3 9 55t26 155q137 -41 248 -50l-27 -152q-7 -34 -41 -34h-188q-27 0 -27 26zM1207 263q8 -1 15 -1.5t12 -0.5q44 0 44 15q0 21 -54 84z" />
<glyph unicode="L" horiz-adv-x="1323" d="M-79 553q0 74 171 172l108 606q7 34 41 34h187q35 0 28 -34l-82 -462q608 274 967 274q111 0 111 -49q0 -92 -317 -251q-203 -102 -416 -179q-111 -40 -211 -70.5t-191 -50.5q-170 -40 -286 -40q-110 0 -110 50zM-44 561q0 -13 58 -13h47l23 123q-128 -84 -128 -110z M-27 27v7l75 435q149 8 263 40l-45 -253h905q27 0 27 -27q0 -2 -8 -50.5t-24 -144.5q-4 -34 -41 -34h-1125q-27 0 -27 27zM324 584q599 126 1043 447q51 37 51 56q0 14 -68 14q-412 0 -983 -272z" />
<glyph unicode="M" horiz-adv-x="1877" d="M-157 423q0 89 230 193l87 493q19 102 108 179q91 77 195 77h1194q90 0 152 -62t62 -153q0 -10 -4 -36.5t-12 -69.5h4q180 0 180 -81q0 -133 -561 -326q-192 -66 -368.5 -117t-343.5 -88q-406 -91 -691 -91q-232 0 -232 82zM-114 432q0 -28 148 -38l29 166 q-177 -92 -177 -128zM-27 29q0 1 11.5 70.5t34.5 209.5q14 -2 32.5 -3t40.5 -1q52 0 97.5 3.5t86.5 10.5l-49 -285q-4 -34 -41 -34h-186q-27 0 -27 29zM292 399q117 10 236.5 27t244.5 43l68 386q-129 -34 -253 -75.5t-245 -91.5zM350 732q235 85 498 159l38 218h-470z M696 26q0 3 16.5 95.5t48.5 276.5q136 24 266 65l-75 -429q-7 -34 -41 -34h-187q-28 0 -28 26zM1039 532q134 35 258.5 76.5t241.5 89.5l52 292q-224 -17 -483 -72zM1114 956q262 58 483 78l14 75h-469zM1422 24q0 8 104 597q177 56 276 116l-124 -703q-7 -34 -41 -34h-188 q-27 0 -27 24zM1818 828q181 91 181 131q0 23 -152 34z" />
<glyph unicode="N" d="M-53 729q0 81 161 83l52 297q19 102 108 179q91 77 195 77h682q90 0 152 -62t62 -153q0 -22 -4 -41l-102 -578q126 -68 126 -132q0 -82 -188 -82q-275 0 -578 76q-158 38 -293 89t-250 117q-123 72 -123 130zM-27 26v8l92 531q78 -72 235 -111l-73 -420q-4 -34 -41 -34 h-186q-27 0 -27 26zM-17 742q0 -28 97 -92l21 118q-118 -3 -118 -26zM314 529q318 -131 654 -164l42 236q-312 129 -655 162zM362 799q357 -45 655 -157l82 467h-683zM910 29q0 1 11.5 67.5t34.5 200.5q97 -17 184 -17q36 0 70 3l-44 -249q-7 -34 -41 -34h-188q-27 0 -27 29 zM1224 360q121 7 121 29q0 26 -101 91z" />
<glyph unicode="O" d="M7 215q0 21 3 41l103 585q68 -71 230 -152l-77 -433h683l32 189q126 -37 251 -37l-27 -152q-20 -103 -109 -179q-89 -77 -193 -77h-683q-90 0 -152 62q-61 62 -61 153zM20 1010q0 72 122 72h13q21 116 107 199q85 84 201 84h682q90 0 152 -62t62 -153q0 -22 -4 -41 l-82 -460q99 -72 99 -134q0 -73 -135 -73q-237 0 -585 142q-327 130 -533 292q-99 76 -99 134zM56 1019q0 -21 74 -89l18 109h-37q-55 0 -55 -20zM357 766q301 -177 638 -249l43 241q-296 173 -640 247zM404 1044q350 -87 640 -244l55 309h-683zM1246 485h25q67 0 67 22 q0 20 -73 87z" />
<glyph unicode="P" horiz-adv-x="1323" d="M-148 271q0 74 189 164l159 896q7 34 41 34h904q90 0 152 -62t62 -153q0 -22 -4 -41l-44 -256q-9 -52 -41 -104q129 0 129 -63q0 -89 -329 -223q-207 -84 -427 -147q-373 -106 -621 -106q-170 0 -170 61zM-114 278q0 -23 124 -24l22 130q-146 -80 -146 -106zM-27 27 q0 6 25 149q8 -1 18 -1.5t23 -0.5q122 0 217 22l-29 -162q-7 -34 -41 -34h-186q-27 0 -27 27zM270 271q607 83 1042 359q55 34 55 53q0 21 -133 22q-98 -108 -225 -108h-448q-31 0 -250 -85zM317 550q37 14 72 25.5t67 21.5h-130zM372 853h683l44 256h-683z" />
<glyph unicode="Q" horiz-adv-x="1451" d="M-58 396q0 61 118 143l100 570q19 103 109 179q92 77 194 77h682q90 0 152 -62t62 -153q0 -11 -3 -31t-8 -49h4q99 0 99 -48q0 -107 -425 -329q-401 -210 -736 -302q-161 -45 -264 -45q-84 0 -84 50zM-22 401q0 -12 24 -12h32l15 91q-71 -59 -71 -79zM7 215q0 23 13 97 q93 4 263 45l-17 -101h683l72 403q155 79 285 172l-101 -575q10 1 19.5 1.5t19.5 0.5q39 0 39 -29q0 -2 -8 -50.5t-24 -144.5q-4 -34 -41 -34h-990q-90 0 -152 62q-61 62 -61 153zM297 435q378 98 736 297l44 248q-377 -99 -737 -306zM346 715q393 211 738 306l15 88h-683z M1323 923q94 73 94 94q0 12 -26 12h-15q-7 0 -15.5 -0.5t-19.5 -1.5z" />
<glyph unicode="R" d="M-27 34l150 862q151 -172 408 -299h-205l-99 -563q-7 -34 -41 -34h-186q-34 0 -27 34zM55 1056q0 39 37 58q28 15 58 15q7 0 14 -1l36 203q7 34 41 34h819q89 0 151 -62t62 -153q0 -20 -3 -41l-57 -321q53 -56 53 -151q0 -14 -1.5 -29t-3.5 -29q75 -74 75 -127 q0 -71 -100 -71q-103 0 -256 54q-535 190 -850 495q-75 72 -75 126zM90 1068q0 -17 50 -78l15 94q-23 3 -25 3q-40 0 -40 -19zM372 853h449q-206 116 -418 180zM410 1073q254 -86 486 -220h73l45 256h-598zM679 597q158 -77 307 -123l23 123h-330zM910 26q0 3 16.5 96 t48.5 279q139 -47 245 -55l-54 -312q-7 -34 -41 -34h-188q-27 0 -27 26zM1234 425q8 -1 13.5 -1.5t10.5 -0.5q44 0 44 17t-51 79z" />
<glyph unicode="S" d="M-27 27q0 4 30 195q6 34 41 34h905l24 138q139 -51 247 -54l-54 -306q-7 -34 -41 -34h-1125q-27 0 -27 27zM61 1067q0 18 9 32.5t23.5 23.5t33.5 13t39 2l34 193q7 34 41 34h1126q31 0 27 -34l-32 -188q-4 -34 -41 -34h-905l-5 -27q126 -45 246 -102t237 -127h161 q89 0 151 -62t62 -153q0 -10 -2 -27.5t-6 -43.5q69 -71 69 -123q0 -70 -95 -70q-109 0 -254 54q-515 195 -849 517q-70 67 -70 122zM99 1080q0 -17 44 -73l16 90q-6 1 -11 1.5t-10 0.5q-39 0 -39 -19zM113 812q0 11 3 35.5t10 63.5q92 -91 194 -169t216 -145h-210 q-90 0 -152 62q-61 62 -61 153zM372 853h451q-211 125 -419 191zM681 597q156 -80 305 -128l23 128h-328zM1232 415q6 -1 11.5 -1.5t10.5 -0.5h7q33 0 33 19q0 17 -45 73z" />
<glyph unicode="T" horiz-adv-x="1229" d="M-143 579q0 137 672 346l32 184h-435q-31 0 -27 34l32 188q6 34 41 34h1127q31 0 27 -34l-32 -188q-4 -34 -41 -34h-436l-20 -112q262 59 456 59q157 0 157 -61q0 -86 -294 -210q-86 -36 -180.5 -70t-199.5 -66q-431 -132 -722 -132q-157 0 -157 62zM-106 585 q0 -24 144 -24q97 0 206 13t230 39l50 278q-169 -52 -312 -115t-263 -139q-55 -34 -55 -52zM372 26v8l91 509q143 24 267 71l-102 -580q-7 -34 -41 -34h-188q-27 0 -27 26zM742 683q340 103 577 254q57 36 57 53q0 22 -149 22q-194 0 -435 -51z" />
<glyph unicode="U" d="M-12 971q0 79 164 85l48 275q4 34 41 34h187q32 0 28 -34l-50 -285q361 -39 657 -145l75 430q4 34 41 34h188q34 0 27 -34l-95 -537q128 -69 128 -128q0 -86 -214 -86q-403 0 -863 156q-113 37 -213 90q-149 83 -149 145zM7 215q0 21 3 41l98 551q104 -73 237 -106 l-79 -445h683l53 300q80 -8 143 -10q32 -1 59.5 -1t51.5 1l-51 -290q-20 -103 -109 -179q-89 -77 -193 -77h-683q-90 0 -152 62q-61 62 -61 153zM20 981q0 -27 103 -90l20 121q-123 -8 -123 -31zM358 777q321 -125 656 -152l41 235q-317 123 -656 150zM1270 623 q124 7 124 32q0 24 -104 89z" />
<glyph unicode="V" d="M-99 442q0 68 169 152l130 737q7 34 41 34h187q35 0 28 -34l-110 -619q388 142 717 189l75 430q4 34 41 34h188q34 0 27 -34l-73 -413q131 0 131 -61q0 -106 -445 -268q-570 -207 -949 -207q-157 0 -157 60zM-61 449q0 -21 100 -24l22 118q-122 -69 -122 -94zM-27 34 l53 314q30 -3 59 -3q109 0 200 20l-19 -109h683l53 299q160 55 276 117l-73 -416q-20 -107 -107 -181q-89 -75 -195 -75h-903q-31 0 -27 34zM299 439q357 44 715 186l42 237q-354 -45 -716 -188zM1294 758q126 70 126 95q0 19 -106 23z" />
<glyph unicode="W" horiz-adv-x="1877" d="M-92 488q0 63 167 135l125 708q7 34 41 34h187q35 0 28 -34l-108 -607q114 37 236.5 70t256.5 64l84 473q7 34 41 34h188q34 0 27 -34l-73 -416q260 48 481 63l61 353q4 34 41 34h188q34 0 27 -34l-61 -350q133 -4 133 -63q0 -107 -534 -263q-345 -100 -667 -162 q-362 -70 -661 -70q-208 0 -208 65zM-56 493q0 -19 104 -27l19 111q-123 -56 -123 -84zM7 215q0 21 27 176q34 -2 66.5 -3.5t63.5 -1.5q37 0 68.5 2t57.5 6l-24 -138h470l35 203q88 14 154.5 27.5t112.5 27.5l-46 -258h469l68 393q179 54 275 100l-87 -493 q-20 -103 -109 -179q-89 -77 -193 -77h-1195q-90 0 -152 62q-61 62 -61 153zM302 464q111 6 230 20.5t250 37.5l54 309q-131 -30 -253.5 -65t-239.5 -77zM1048 575q135 31 257.5 66t235.5 74l41 227q-118 -7 -237 -21t-242 -35zM1818 829q124 57 124 86q0 16 -104 27z" />
<glyph unicode="X" horiz-adv-x="1280" d="M-58 847q0 75 148 75q97 0 246 -33q-199 292 -199 324q0 22 91 86q91 66 115 66q15 0 24 -12l309 -469l473 469q12 12 30 12q25 0 89 -62q63 -62 63 -90q0 -12 -10 -22l-466 -462q73 -31 140 -65t130 -72q193 -115 193 -194q0 -49 -72 -62q-28 -5 -108 -5 q-261 0 -583 120q-304 112 -529 279q-84 64 -84 117zM-49 152q0 18 356 365q29 -14 57 -29t56 -29q33 -16 63 -26t58 -15l-410 -406q-12 -12 -30 -12q-26 0 -88 62q-62 64 -62 90zM-22 855q0 -43 169 -154q126 -82 218 -126l108 108l-108 164q-153 30 -298 30q-89 0 -89 -22 zM666 389q117 -38 215.5 -62t180.5 -32q81 -111 81 -143q0 -21 -91 -87q-92 -65 -115 -65q-15 0 -24 12zM807 683l162 -304q91 -12 234 -12q79 0 79 20q0 29 -92 103q-143 113 -364 210z" />
<glyph unicode="Y" d="M-53 582q0 70 171 171q-7 22 -7 51q0 12 1.5 24t3.5 25l84 478q4 34 41 34h187q35 0 28 -34l-79 -445q401 182 727 252l34 193q7 34 41 34h188q31 0 27 -34l-27 -159h18q95 0 95 -49q0 -69 -151 -157q-45 -26 -128 -65.5t-206 -91.5q-180 -76 -316 -129t-230 -83 q-212 -66 -393 -66q-109 0 -109 51zM-19 591q0 -16 70 -16q97 0 239 26q-110 19 -157 114q-152 -95 -152 -124zM312 34l33 188q4 34 41 34h563l60 341h-475q365 113 790 335l-119 -676q-20 -104 -110 -179q-91 -77 -192 -77h-563q-32 0 -28 34zM384 853h671l42 243 q-361 -72 -713 -243zM1340 1021q106 70 106 95q0 12 -55 12h-32z" />
<glyph unicode="Z" d="M-51 422q0 58 116 145q16 115 104 201q86 85 203 85h160q283 142 562 229l5 27h-904q-32 0 -28 34l33 188q4 34 41 34h1126q34 0 27 -34l-34 -193h11q71 0 71 -47q0 -62 -116 -146q-447 -323 -1029 -517q-164 -54 -275 -54q-73 0 -73 48zM-27 27q0 3 53 313q106 3 264 54 l-24 -138h905q27 0 27 -27q0 -2 -8 -50.5t-24 -144.5q-4 -34 -41 -34h-1125q-27 0 -27 27zM-15 427q0 -14 22 -14h12q4 0 8.5 0.5t10.5 1.5l17 90q-70 -63 -70 -78zM304 469q83 24 170 56t180 72h-328zM604 853h451l32 191q-114 -32 -234 -79.5t-249 -111.5zM799 597 q140 68 269.5 146t252.5 168q-2 -9 -4 -23.5t-6 -34.5q-21 -103 -110 -180q-88 -76 -192 -76h-210zM1338 1007q72 61 72 78q0 14 -36 14q-4 0 -9 -0.5t-12 -1.5z" />
<glyph unicode="[" horiz-adv-x="683" d="M-58 -305l288 1636q7 34 40 34h443q29 0 29 -30q0 -4 -34 -192q-7 -34 -39 -34h-222l-211 -1193h221q29 0 29 -30q0 -1 -8.5 -48.5l-25.5 -142.5q-8 -35 -39 -35h-442q-29 0 -29 31v4z" />
<glyph unicode="\" horiz-adv-x="672" d="M133 1242q0 26 2 36q4 20 31 34q9 6 97 28q85 22 101 22q29 0 35 -55q1 -20 2 -39t2 -39l25 -266q14 -161 36.5 -400t52.5 -561q11 -114 16.5 -170t5.5 -54q0 -26 -1 -31q-8 -21 -31 -34q-10 -6 -98 -28q-86 -21 -100 -21q-29 0 -36 54q-1 20 -1.5 39.5t-1.5 39.5 l-26 264l-35 377.5t-49 527.5q0 4 -4.5 38t-12.5 100q-5 42 -7.5 76.5t-2.5 61.5z" />
<glyph unicode="]" horiz-adv-x="683" d="M-58 -309q0 1 8.5 48.5l25.5 142.5q7 34 38 34h222l211 1193h-222q-29 0 -29 31q0 1 8.5 48.5l25.5 142.5q7 34 40 34h443q29 0 29 -30v-4l-290 -1636q-8 -35 -39 -35h-442q-29 0 -29 31z" />
<glyph unicode="a" d="M-27 26v8l97 563q19 117 128 197v15q-1 24 3 60.5t14 87.5q8 38 15.5 76t15.5 76q16 102 107 179q92 77 195 77h512q89 0 151 -62t62 -153q0 -20 -3 -41l-45 -256q-3 -25 -18 -59q61 -61 61 -154q0 -22 -3 -43l-99 -563q-7 -34 -41 -34h-188q-27 0 -27 26v8l99 563h-683 l-99 -563q-7 -34 -41 -34h-186q-27 0 -27 26zM457 853h512l45 256h-512z" />
<glyph unicode="b" d="M-27 24q0 5 57 331.5t170 975.5q7 34 41 34h819q89 0 151 -62t62 -153q0 -20 -3 -41l-57 -321q55 -58 55 -148q0 -21 -3 -43l-60 -341q-17 -103 -108 -179q-91 -77 -194 -77h-903q-27 0 -27 24zM266 256h683l60 341h-683zM372 853h597l45 256h-598z" />
<glyph unicode="c" d="M7 215q0 21 3 41l150 853q19 102 108 179q91 77 195 77h904q27 0 27 -24q0 -8 -32 -198q-4 -34 -41 -34h-905l-150 -853h905q27 0 27 -24q0 -8 -32 -198q-4 -34 -41 -34h-905q-90 0 -152 62q-61 62 -61 153z" />
<glyph unicode="d" d="M-27 34l227 1297q7 34 41 34h904q90 0 152 -62t62 -153q0 -22 -4 -41l-150 -853q-20 -103 -109 -179q-89 -77 -193 -77h-903q-34 0 -27 34zM266 256h683l150 853h-683z" />
<glyph unicode="e" d="M-27 31v3l227 1297q7 34 41 34h1126q27 0 27 -30l-32 -192q-4 -34 -41 -34h-905l-44 -256h905q27 0 27 -30l-33 -192q-4 -34 -40 -34h-905l-60 -341h905q27 0 27 -31l-32 -191q-4 -34 -41 -34h-1125q-27 0 -27 31z" />
<glyph unicode="f" horiz-adv-x="1323" d="M-27 31v3l227 1297q7 34 41 34h1126q27 0 27 -30l-32 -192q-4 -34 -41 -34h-905l-44 -256h905q27 0 27 -30l-33 -192q-4 -34 -40 -34h-905l-99 -563q-7 -34 -41 -34h-186q-27 0 -27 31z" />
<glyph unicode="g" d="M7 215q0 21 3 41l150 853q19 102 108 179q91 77 195 77h904q27 0 27 -25q0 -4 -8 -52.5t-24 -144.5q-4 -34 -41 -34h-905l-150 -853h683l99 563q7 34 41 34h188q27 0 27 -25v-9l-138 -785q-7 -34 -41 -34h-905q-90 0 -152 62q-61 62 -61 153z" />
<glyph unicode="h" d="M-27 31v3l227 1297q7 34 41 34h187q28 0 28 -30v-4l-84 -478h683l83 478q4 34 41 34h188q27 0 27 -30v-4l-228 -1297q-7 -34 -41 -34h-188q-27 0 -27 31v3l99 563h-683l-99 -563q-7 -34 -41 -34h-186q-27 0 -27 31z" />
<glyph unicode="i" horiz-adv-x="427" d="M-27 31v3l227 1297q7 34 41 34h187q28 0 28 -30v-4l-229 -1297q-7 -34 -41 -34h-186q-27 0 -27 31z" />
<glyph unicode="j" horiz-adv-x="981" d="M-70 26q0 3 8 51.5t24 144.5q6 34 40 34h563l189 1075q7 34 41 34h188q27 0 27 -25v-9l-189 -1075q-20 -103 -109 -179q-89 -77 -193 -77h-562q-27 0 -27 26z" />
<glyph unicode="k" d="M-27 29v5l227 1297q7 34 41 34h187q31 0 28 -29v-5l-99 -563h160l690 587q11 10 27 10q22 0 79 -70q57 -71 57 -94q0 -15 -13 -27l-478 -406h160q90 0 152 -63q62 -62 62 -152q0 -11 -1 -21t-3 -20l-83 -478q-7 -34 -41 -34h-188q-32 0 -27 29v5l83 478h-682l-84 -478 q-7 -34 -41 -34h-186q-32 0 -27 29z" />
<glyph unicode="l" horiz-adv-x="1323" d="M-27 31v3l227 1297q7 34 41 34h187q28 0 28 -30v-4l-190 -1075h905q27 0 27 -31q0 -1 -8 -48t-24 -143q-4 -34 -41 -34h-1125q-27 0 -27 31z" />
<glyph unicode="m" horiz-adv-x="1877" d="M-27 26v8l187 1075q19 102 108 179q91 77 195 77h1194q90 0 152 -62t62 -153q0 -22 -4 -41l-189 -1075q-7 -34 -41 -34h-188q-27 0 -27 26v8l189 1075h-469l-190 -1075q-7 -34 -41 -34h-187q-28 0 -28 26v8l190 1075h-470l-189 -1075q-7 -34 -41 -34h-186q-27 0 -27 26z " />
<glyph unicode="n" d="M-27 24q0 12 187 1085q19 102 108 179q91 77 195 77h682q90 0 152 -62t62 -153q0 -22 -4 -41l-189 -1075q-7 -34 -41 -34h-188q-27 0 -27 24q0 9 189 1085h-683l-189 -1075q-7 -34 -41 -34h-186q-27 0 -27 24z" />
<glyph unicode="o" d="M7 215q0 21 3 41l150 853q19 102 108 179q91 77 195 77h682q90 0 152 -62t62 -153q0 -22 -4 -41l-150 -853q-20 -103 -109 -179q-89 -77 -193 -77h-683q-90 0 -152 62q-61 62 -61 153zM266 256h683l150 853h-683z" />
<glyph unicode="p" horiz-adv-x="1323" d="M-27 24q0 5 57 331.5t170 975.5q7 34 41 34h904q90 0 152 -62t62 -153q0 -23 -48 -297q-17 -103 -108 -179q-91 -77 -194 -77h-683l-99 -563q-7 -34 -41 -34h-186q-27 0 -27 24zM372 853h683l44 256h-683z" />
<glyph unicode="q" horiz-adv-x="1451" d="M7 215q0 21 3 41l150 853q19 102 108 179q91 77 195 77h682q90 0 152 -62t62 -153q0 -22 -4 -41l-150 -853q16 1 30 1.5t25 0.5q23 0 23 -28q0 -2 -8 -50.5l-24 -145.5q-4 -34 -41 -34h-990q-90 0 -152 62q-61 62 -61 153zM266 256h683l150 853h-683z" />
<glyph unicode="r" d="M-27 27v7l227 1297q7 34 41 34h819q89 0 151 -62t62 -153q0 -20 -3 -41l-57 -321q55 -58 55 -146q0 -23 -3 -45l-99 -563q-7 -34 -41 -34h-188q-29 0 -27 27v7l99 563h-683l-99 -563q-7 -34 -41 -34h-186q-29 0 -27 27zM372 853h597l45 256h-598z" />
<glyph unicode="s" d="M-27 27q0 4 30 195q6 34 41 34h905l60 341h-683q-90 0 -152 62q-61 62 -61 153q0 21 3 41l84 478q4 34 41 34h1126q27 0 27 -27q0 -2 -8 -50.5t-24 -144.5q-4 -34 -41 -34h-905l-44 -256h683q89 0 151 -62t62 -153q0 -20 -3 -41l-99 -563q-7 -34 -41 -34h-1125 q-27 0 -27 27z" />
<glyph unicode="t" horiz-adv-x="1229" d="M99 1140l32 191q6 34 41 34h1127q27 0 27 -30l-32 -192q-4 -34 -41 -34h-436l-189 -1075q-7 -34 -41 -34h-188q-27 0 -27 31v3l189 1075h-435q-27 0 -27 31z" />
<glyph unicode="u" d="M7 215q0 21 3 41l190 1075q7 34 41 34h187q28 0 28 -24q0 -12 -190 -1085h683l189 1075q7 34 41 34h188q27 0 27 -24q0 -10 -189 -1085q-20 -103 -109 -179q-89 -77 -193 -77h-683q-90 0 -152 62q-61 62 -61 153z" />
<glyph unicode="v" d="M-27 26v8l227 1297q7 34 41 34h187q28 0 28 -25v-9l-190 -1075h683l189 1075q7 34 41 34h188q27 0 27 -25v-9l-189 -1075q-20 -103 -109 -179q-89 -77 -193 -77h-903q-27 0 -27 26z" />
<glyph unicode="w" horiz-adv-x="1877" d="M7 215q0 21 3 41l190 1075q7 34 41 34h187q28 0 28 -25v-9l-190 -1075h470l189 1075q7 34 41 34h188q27 0 27 -25v-9l-189 -1075h469l189 1075q7 34 41 34h188q27 0 27 -25v-9l-189 -1075q-20 -103 -109 -179q-89 -77 -193 -77h-1195q-90 0 -152 62q-61 62 -61 153z" />
<glyph unicode="x" horiz-adv-x="1280" d="M-49 148q0 16 10 26l512 509q-336 514 -336 524q0 25 89 91q89 67 117 67q15 0 24 -12l309 -469l473 469q12 12 30 12q23 0 88 -62q64 -61 64 -86q0 -16 -10 -26l-514 -508q336 -516 336 -524q0 -26 -90 -93q-89 -66 -116 -66q-15 0 -24 12l-309 469l-473 -469 q-12 -12 -30 -12q-23 0 -87 62q-63 63 -63 86z" />
<glyph unicode="y" d="M113 812q0 21 3 41l84 478q4 34 41 34h187q28 0 28 -25v-9l-84 -478h683l83 478q4 34 41 34h188q27 0 27 -25v-9l-189 -1075q-20 -103 -109 -179q-89 -77 -193 -77h-563q-28 0 -28 26q0 5 33 196q4 34 41 34h563l60 341h-683q-90 0 -152 62q-61 62 -61 153z" />
<glyph unicode="z" d="M-27 24q0 13 97 573q19 102 108 179q91 77 194 77h683l44 256h-904q-28 0 -28 24q0 10 33 198q4 34 41 34h1126q27 0 27 -24q0 -5 -21 -127t-62 -361q-17 -103 -108 -179q-91 -77 -194 -77h-683l-60 -341h905q27 0 27 -24q0 -8 -32 -198q-4 -34 -41 -34h-1125 q-27 0 -27 24z" />
<glyph unicode="{" horiz-adv-x="683" d="M-58 -305l288 1636q7 34 40 34h443q29 0 29 -30q0 -4 -34 -192q-7 -34 -39 -34h-222l-211 -1193h221q29 0 29 -30q0 -1 -8.5 -48.5l-25.5 -142.5q-8 -35 -39 -35h-442q-29 0 -29 31v4z" />
<glyph unicode="|" horiz-adv-x="427" d="M-58 -305l288 1636q7 34 40 34h187q29 0 29 -30v-4l-290 -1636q-8 -35 -39 -35h-186q-29 0 -29 31v4z" />
<glyph unicode="}" horiz-adv-x="683" d="M-58 -309q0 1 8.5 48.5l25.5 142.5q7 34 38 34h222l211 1193h-222q-29 0 -29 31q0 1 8.5 48.5l25.5 142.5q7 34 40 34h443q29 0 29 -30v-4l-290 -1636q-8 -35 -39 -35h-442q-29 0 -29 31z" />
<glyph unicode="&#xa1;" horiz-adv-x="427" d="M-27 31v3l167 956q7 34 39 34h188q29 0 29 -31v-3l-169 -956q-7 -34 -41 -34h-186q-27 0 -27 31zM167 1140l33 191q4 34 41 34h187q28 0 28 -30q0 -2 -33 -192q-4 -34 -41 -34h-187q-28 0 -28 31z" />
<glyph unicode="&#xa2;" d="M29 343q0 21 3 41l106 597q19 102 108 179t193 77h213q12 75 12 77q13 51 46 51h188q27 0 27 -37q0 -6 -4.5 -28.5l-12.5 -62.5h435q29 0 29 -27q0 -7 -34 -195q-7 -34 -39 -34h-905l-106 -597h905q29 0 29 -27q0 -7 -34 -195q-7 -34 -39 -34h-436q-12 -75 -12 -77 q-14 -51 -46 -51h-187q-28 0 -28 38q0 8 17 90h-213q-89 0 -153 62q-62 64 -62 153z" />
<glyph unicode="&#xad;" horiz-adv-x="1024" d="M68 585q0 4 34 192q7 34 40 34h785q29 0 29 -31q0 -1 -8.5 -48.5l-25.5 -142.5q-7 -34 -40 -34h-785q-29 0 -29 30z" />
<glyph unicode="&#xbf;" d="M7 215q0 22 48 297q17 102 107 179q92 77 195 77h682l40 222q6 34 39 34h188q35 0 29 -34l-40 -222q-18 -103 -108 -179q-91 -77 -194 -77h-682l-45 -256h905q31 0 27 -34l-32 -188q-4 -34 -41 -34h-905q-90 0 -152 62q-61 62 -61 153zM1106 1140l32 191q4 34 41 34h188 q27 0 27 -30l-32 -192q-4 -34 -41 -34h-188q-27 0 -27 31z" />
<glyph unicode="&#x2000;" horiz-adv-x="682" />
<glyph unicode="&#x2001;" />
<glyph unicode="&#x2002;" horiz-adv-x="682" />
<glyph unicode="&#x2003;" />
<glyph unicode="&#x2004;" horiz-adv-x="455" />
<glyph unicode="&#x2005;" horiz-adv-x="341" />
<glyph unicode="&#x2006;" horiz-adv-x="227" />
<glyph unicode="&#x2007;" horiz-adv-x="227" />
<glyph unicode="&#x2008;" horiz-adv-x="170" />
<glyph unicode="&#x2009;" horiz-adv-x="273" />
<glyph unicode="&#x200a;" horiz-adv-x="75" />
<glyph unicode="&#x2010;" horiz-adv-x="1024" d="M68 585q0 4 34 192q7 34 40 34h785q29 0 29 -31q0 -1 -8.5 -48.5l-25.5 -142.5q-7 -34 -40 -34h-785q-29 0 -29 30z" />
<glyph unicode="&#x2011;" horiz-adv-x="1024" d="M68 585q0 4 34 192q7 34 40 34h785q29 0 29 -31q0 -1 -8.5 -48.5l-25.5 -142.5q-7 -34 -40 -34h-785q-29 0 -29 30z" />
<glyph unicode="&#x2012;" horiz-adv-x="1024" d="M68 585q0 4 34 192q7 34 40 34h785q29 0 29 -31q0 -1 -8.5 -48.5l-25.5 -142.5q-7 -34 -40 -34h-785q-29 0 -29 30z" />
<glyph unicode="&#x2013;" horiz-adv-x="1160" d="M68 585q0 4 39 192q8 34 46 34h906q33 0 33 -31q0 -1 -10 -48.5t-29 -142.5q-8 -34 -46 -34h-906q-33 0 -33 30z" />
<glyph unicode="&#x2014;" horiz-adv-x="2184" d="M68 585q0 4 78 192q17 34 93 34h1810q67 0 67 -31q0 -1 -19.5 -48.5l-58.5 -142.5q-17 -34 -93 -34h-1810q-67 0 -67 30z" />
<glyph unicode="&#x2018;" horiz-adv-x="427" d="M55 964q0 10 24 147q17 93 87 169q72 78 160 85v-32q-68 -17 -97 -137q26 2 40 3t16 1q58 0 58 -28q0 -4 -8 -53t-24 -144q-6 -35 -41 -35h-188q-27 0 -27 24z" />
<glyph unicode="&#x2019;" horiz-adv-x="427" d="M84 1133q0 5 8 54t24 144q4 34 41 34h188q27 0 27 -24q0 -10 -24 -146q-17 -93 -87 -169q-71 -77 -160 -86v33q68 17 97 136q-53 -3 -56 -3q-58 0 -58 27z" />
<glyph unicode="&#x201a;" horiz-adv-x="427" d="M84 27q0 5 8 54t24 144q4 34 41 34h188q27 0 27 -23q0 -11 -24 -147q-16 -90 -87 -167t-160 -86v33q68 17 97 134q-53 -3 -56 -3q-58 0 -58 27z" />
<glyph unicode="&#x201c;" horiz-adv-x="717" d="M55 964q0 10 24 147q17 93 87 169q72 78 160 85v-32q-68 -17 -97 -137q26 2 40 3t16 1q58 0 58 -28q0 -4 -8 -53t-24 -144q-6 -35 -41 -35h-188q-27 0 -27 24zM345 964q0 10 24 147q17 93 87 169q72 78 160 85v-32q-68 -17 -97 -137q26 2 40 3t16 1q58 0 58 -28 q0 -4 -8 -53t-24 -144q-5 -35 -41 -35h-188q-27 0 -27 24z" />
<glyph unicode="&#x201d;" horiz-adv-x="717" d="M84 1133q0 5 8 54t24 144q4 34 41 34h188q27 0 27 -24q0 -10 -24 -146q-17 -93 -87 -169q-71 -77 -160 -86v33q68 17 97 136q-53 -3 -56 -3q-58 0 -58 27zM374 1133q0 5 8 54t24 144q4 34 41 34h188q27 0 27 -24q0 -10 -24 -146q-17 -93 -87 -169q-71 -77 -160 -86v33 q68 17 97 136q-53 -3 -56 -3q-58 0 -58 27z" />
<glyph unicode="&#x201e;" horiz-adv-x="717" d="M84 27q0 5 8 54t24 144q4 34 41 34h188q27 0 27 -23q0 -11 -24 -147q-16 -90 -87 -167t-160 -86v33q68 17 97 134q-53 -3 -56 -3q-58 0 -58 27zM374 27q0 5 8 54t24 144q4 34 41 34h188q27 0 27 -23q0 -11 -24 -147q-16 -90 -87 -167t-160 -86v33q68 17 97 134 q-53 -3 -56 -3q-58 0 -58 27z" />
<glyph unicode="&#x202f;" horiz-adv-x="273" />
<glyph unicode="&#x205f;" horiz-adv-x="341" />
<glyph unicode="&#x25fc;" d="M0 0v1365h1365v-1365h-1365z" />
</font>
</defs>
</svg>
